<svg width="35" height="34" viewBox="0 0 35 34" fill="none" xmlns="http://www.w3.org/2000/svg">
<path fill-rule="evenodd" clip-rule="evenodd" d="M7.94491 3.22709C6.75851 4.05666 5.68568 5.03748 4.75437 6.14158C8.56014 5.78826 13.3952 6.3652 19.0087 9.17196C25.0031 12.1691 29.8302 12.2704 33.1895 11.6224C32.8847 10.6996 32.5009 9.81257 32.0464 8.96937C28.2008 9.37497 23.2708 8.8381 17.5253 5.96543C13.8769 4.14121 10.6608 3.38975 7.94491 3.22709ZM29.8 5.77194C26.7631 2.37886 22.3498 0.2435 17.4377 0.2435C15.9952 0.2435 14.5956 0.427686 13.2613 0.7738C15.0684 1.26689 16.9882 1.98827 19.0087 2.99855C23.2152 5.10179 26.8469 5.77899 29.8 5.77194ZM33.9077 14.8619C29.8493 15.6633 24.245 15.4987 17.5253 12.1388C11.2431 8.99773 6.243 9.03729 2.87076 9.7867C2.69669 9.82534 2.52673 9.86598 2.36087 9.90827C1.91935 10.8685 1.56693 11.8782 1.31406 12.9267C1.58414 12.8546 1.86322 12.786 2.15117 12.722C6.24229 11.8128 12.0227 11.8523 19.0087 15.3454C25.291 18.4865 30.2911 18.4469 33.6634 17.6975C33.7789 17.6719 33.8927 17.6453 34.0047 17.618C34.017 17.3565 34.0231 17.0934 34.0231 16.8288C34.0231 16.1634 33.984 15.507 33.9077 14.8619ZM33.4632 21.1181C29.4441 21.8207 24.0031 21.551 17.5253 18.3122C11.2431 15.1711 6.243 15.2107 2.87076 15.9601C2.12222 16.1264 1.44884 16.329 0.854831 16.5428C0.853212 16.6379 0.852402 16.7333 0.852402 16.8288C0.852402 25.9887 8.27791 33.4142 17.4377 33.4142C25.1144 33.4142 31.5729 28.1989 33.4632 21.1181Z" fill="#080C2E"/>
</svg>
