<svg width="31" height="30" viewBox="0 0 31 30" fill="none" xmlns="http://www.w3.org/2000/svg">
<path d="M15.7683 21C12.4546 21 9.76828 18.3137 9.76828 15C9.76828 11.6863 12.4546 9 15.7683 9C19.082 9 21.7683 11.6863 21.7683 15C21.7683 18.3137 19.082 21 15.7683 21Z" fill="#080C2E"/>
<path d="M4.14451 17.0496C2.40576 17.3562 1.21394 19.0358 1.88139 20.6704C2.81323 22.9524 4.29986 24.9856 6.22717 26.5744C8.98308 28.8461 12.4591 30.06 16.0301 29.9977C19.6011 29.9354 23.0327 28.6009 25.7077 26.2343C27.5783 24.5793 28.9931 22.4954 29.8448 20.1823C30.4548 18.5254 29.205 16.8884 27.4566 16.6427C25.7083 16.397 24.1385 17.6696 23.2749 19.2096C22.8068 20.0443 22.1991 20.8016 21.4711 21.4457C19.9363 22.8036 17.9674 23.5692 15.9186 23.605C13.8697 23.6407 11.8753 22.9443 10.2941 21.6408C9.54398 21.0225 8.91028 20.2869 8.4133 19.469C7.49651 17.9601 5.88326 16.743 4.14451 17.0496Z" fill="#080C2E"/>
<path d="M30.6523 16.8745C30.7289 16.2604 30.7683 15.6348 30.7683 15C30.7683 6.71573 24.0526 0 15.7683 0C7.48401 0 0.76828 6.71573 0.76828 15C0.76828 15.8147 0.83323 16.6142 0.95824 17.3937C1.64722 16.4505 2.72254 15.7772 3.88404 15.5724C5.14073 15.3508 6.28286 15.6556 7.24855 16.2253C7.1915 15.8251 7.16198 15.416 7.16198 15C7.16198 10.2469 11.0152 6.3937 15.7683 6.3937C20.5214 6.3937 24.3746 10.2469 24.3746 15C24.3746 15.3134 24.3578 15.6229 24.3252 15.9276C25.2705 15.3243 26.4015 14.9796 27.6654 15.1573C28.833 15.3214 29.9308 15.9564 30.6523 16.8745Z" fill="#080C2E"/>
</svg>
