<svg width="35" height="34" viewBox="0 0 35 34" fill="none" xmlns="http://www.w3.org/2000/svg">
<path fill-rule="evenodd" clip-rule="evenodd" d="M17.4621 33.4388C26.622 33.4388 34.0475 26.0132 34.0475 16.8534C34.0475 7.69358 26.622 0.268066 17.4621 0.268066C8.30228 0.268066 0.87677 7.69358 0.87677 16.8534C0.87677 26.0132 8.30228 33.4388 17.4621 33.4388ZM20.0221 13.0824C21.4358 11.6686 21.4358 9.37638 20.0221 7.96256C18.6082 6.54876 16.3161 6.54876 14.9022 7.96256C13.4885 9.37638 13.4885 11.6686 14.9022 13.0824L17.4621 15.6423L20.0221 13.0824ZM21.2332 19.4133C22.647 20.8272 24.9392 20.8272 26.353 19.4133C27.7668 17.9995 27.7668 15.7073 26.353 14.2935C24.9392 12.8798 22.647 12.8798 21.2332 14.2935L18.6733 16.8535L21.2332 19.4133ZM20.0221 25.7443C21.4358 24.3305 21.4358 22.0383 20.0221 20.6245L17.4621 18.0646L14.9022 20.6245C13.4885 22.0383 13.4885 24.3305 14.9022 25.7443C16.3161 27.1581 18.6082 27.1581 20.0221 25.7443ZM8.57124 19.4133C7.15747 17.9995 7.15747 15.7073 8.57124 14.2935C9.98509 12.8798 12.2773 12.8798 13.6911 14.2935L16.251 16.8535L13.6911 19.4133C12.2773 20.8272 9.98509 20.8272 8.57124 19.4133Z" fill="#080C2E"/>
</svg>
